<?xml version="1.0" encoding="UTF-8"?>
<svg xmlns="http://www.w3.org/2000/svg" xmlns:xlink="http://www.w3.org/1999/xlink" width="150px" height="150px" viewBox="0 0 632 447" version="1.1">
<g id="surface1">
<path style="fill:none;stroke-width:15.0562;stroke-linecap:butt;stroke-linejoin:miter;stroke:rgb(91.764706%,34.901961%,21.568627%);stroke-opacity:1;stroke-miterlimit:10;" d="M 314.588518 430.640592 L 610.030132 430.640592 C 631.752325 430.640592 649.512249 412.870419 649.512249 391.1623 L 649.512249 276.961885 C 649.512249 215.957546 599.601188 166.038757 538.589525 166.038757 L 537.298273 166.038757 C 476.302229 166.038757 426.380755 215.952344 426.380755 276.961885 L 426.380755 282.80898 " transform="matrix(0.750241,0,0,0.750907,0.189899,0)"/>
<path style="fill:none;stroke-width:15.0562;stroke-linecap:butt;stroke-linejoin:miter;stroke:rgb(91.764706%,34.901961%,21.568627%);stroke-opacity:1;stroke-miterlimit:10;" d="M 390.991074 282.798576 L 390.991074 271.447722 C 390.991074 195.321048 453.66887 133.042208 530.269279 133.042208 L 543.858666 133.042208 C 620.469489 133.042208 683.142078 195.331452 683.142078 271.447722 L 683.142078 393.758119 C 683.142078 432.36767 651.350201 463.949263 612.49809 463.949263 L 314.588518 463.949263 " transform="matrix(0.750241,0,0,0.750907,0.189899,0)"/>
<path style="fill:none;stroke-width:15.0562;stroke-linecap:butt;stroke-linejoin:miter;stroke:rgb(91.764706%,34.901961%,21.568627%);stroke-opacity:1;stroke-miterlimit:10;" d="M 314.588518 498.54804 L 613.950748 498.54804 C 670.06815 498.54804 715.980494 452.640025 715.980494 396.520403 L 715.980494 278.158355 C 715.980494 179.491236 635.251202 98.77116 536.590167 98.77116 C 437.918718 98.77116 357.199839 179.50164 357.199839 278.158355 L 357.199839 282.80898 " transform="matrix(0.750241,0,0,0.750907,0.189899,0)"/>
<path style="fill:none;stroke-width:15.0562;stroke-linecap:butt;stroke-linejoin:miter;stroke:rgb(91.764706%,34.901961%,21.568627%);stroke-opacity:1;stroke-miterlimit:10;" d="M 323.24199 282.798576 L 323.24199 269.242056 C 323.24199 155.920786 415.951811 63.210005 529.2696 63.210005 L 545.831991 63.210005 C 659.14978 63.210005 751.859601 155.920786 751.859601 269.242056 L 751.859601 388.452036 C 751.859601 469.182517 685.807889 535.238038 605.068183 535.238038 L 314.588518 535.238038 " transform="matrix(0.750241,0,0,0.750907,0.189899,0)"/>
<path style=" stroke:none;fill-rule:nonzero;fill:rgb(0.392157%,0.784314%,0.784314%);fill-opacity:1;" d="M 213.859375 127.324219 L 213.859375 152.105469 L 67.734375 70.074219 L 67.734375 38.800781 L 302.65625 38.800781 C 302.65625 38.800781 286.085938 45.292969 277.425781 57.082031 L 86.242188 57.082031 Z M 213.859375 127.324219 "/>
<path style=" stroke:none;fill-rule:nonzero;fill:rgb(0.392157%,0.784314%,0.784314%);fill-opacity:1;" d="M 67.734375 90.523438 L 67.734375 113.613281 L 214.339844 193.230469 L 214.339844 172.304688 Z M 67.734375 90.523438 "/>
<path style=" stroke:none;fill-rule:nonzero;fill:rgb(0.392157%,0.784314%,0.784314%);fill-opacity:1;" d="M 67.734375 134.539062 L 67.734375 157.628906 L 214.339844 237.257812 L 214.339844 216.328125 Z M 67.734375 134.539062 "/>
<path style=" stroke:none;fill-rule:nonzero;fill:rgb(91.764706%,34.901961%,21.568627%);fill-opacity:1;" d="M 67.734375 180.96875 L 67.734375 408.191406 L 213.949219 408.191406 L 213.949219 260.828125 Z M 67.734375 180.96875 "/>
</g>
</svg>
