<?xml version="1.0" encoding="UTF-8"?>
<svg xmlns="http://www.w3.org/2000/svg" xmlns:xlink="http://www.w3.org/1999/xlink" width="150px" height="150px" viewBox="0 0 632 447" version="1.1">
<g id="surface1">
<path style=" stroke:none;fill-rule:nonzero;fill:rgb(90.196078%,11.372549%,44.705882%);fill-opacity:1;" d="M 84.515625 177.535156 L 235.53125 262.007812 L 235.53125 408.1875 L 84.515625 408.1875 Z M 84.515625 177.535156 "/>
<path style=" stroke:none;fill-rule:nonzero;fill:rgb(0.392157%,0.784314%,0.784314%);fill-opacity:1;" d="M 84.515625 38.8125 L 339.578125 38.8125 C 339.578125 38.8125 324.0625 45.4375 317.234375 57.863281 L 111.414062 57.863281 L 234.289062 128.878906 L 234.289062 156 L 84.515625 69.730469 Z M 84.515625 38.8125 "/>
<path style=" stroke:none;fill-rule:nonzero;fill:rgb(0.392157%,0.784314%,0.784314%);fill-opacity:1;" d="M 84.515625 89.191406 L 84.515625 115.699219 L 232.90625 196.308594 L 232.90625 170.359375 Z M 84.515625 89.191406 "/>
<path style=" stroke:none;fill-rule:nonzero;fill:rgb(0.392157%,0.784314%,0.784314%);fill-opacity:1;" d="M 84.515625 134.195312 L 84.515625 160.695312 L 232.90625 241.304688 L 232.90625 215.351562 Z M 84.515625 134.195312 "/>
<path style="fill:none;stroke-width:8.6395;stroke-linecap:butt;stroke-linejoin:miter;stroke:rgb(90.588235%,12.156863%,45.098039%);stroke-opacity:1;stroke-miterlimit:10;" d="M 570.110656 380.35766 C 532.200951 380.35766 501.179659 349.337887 501.179659 311.430612 L 501.179659 215.478958 C 501.179659 177.571683 532.200951 146.55191 570.110656 146.55191 C 608.020361 146.55191 639.041652 177.571683 639.041652 215.478958 L 639.041652 311.430612 C 639.052065 349.337887 608.030774 380.35766 570.110656 380.35766 Z M 570.110656 380.35766 " transform="matrix(0.750241,0,0,0.750907,0.189899,0)"/>
<path style="fill:none;stroke-width:8.6395;stroke-linecap:butt;stroke-linejoin:miter;stroke:rgb(90.588235%,12.156863%,45.098039%);stroke-opacity:1;stroke-miterlimit:10;" d="M 572.31828 415.102095 C 517.731637 415.102095 473.058479 370.432165 473.058479 315.841943 L 473.058479 213.840315 C 473.058479 159.250093 517.731637 114.580164 572.31828 114.580164 C 626.91013 114.580164 671.578082 159.250093 671.578082 213.840315 L 671.578082 315.841943 C 671.578082 370.432165 626.91013 415.102095 572.31828 415.102095 Z M 572.31828 415.102095 " transform="matrix(0.750241,0,0,0.750907,0.189899,0)"/>
<path style="fill:none;stroke-width:8.6395;stroke-linecap:butt;stroke-linejoin:miter;stroke:rgb(90.588235%,12.156863%,45.098039%);stroke-opacity:1;stroke-miterlimit:10;" d="M 571.490421 441.018665 C 500.971393 441.018665 443.281579 383.317622 443.281579 312.809153 L 443.281579 214.651834 C 443.281579 144.127759 500.981806 86.442322 571.490421 86.442322 C 642.009449 86.442322 699.699263 144.138163 699.699263 214.651834 L 699.699263 312.809153 C 699.709676 383.317622 642.009449 441.018665 571.490421 441.018665 Z M 571.490421 441.018665 " transform="matrix(0.750241,0,0,0.750907,0.189899,0)"/>
<path style="fill:none;stroke-width:8.6395;stroke-linecap:butt;stroke-linejoin:miter;stroke:rgb(90.588235%,12.156863%,45.098039%);stroke-opacity:1;stroke-miterlimit:10;" d="M 570.391815 470.238531 C 482.888656 470.238531 411.291849 398.648038 411.291849 311.139297 L 411.291849 210.781515 C 411.291849 123.277977 482.878243 51.682281 570.391815 51.682281 C 657.889768 51.682281 729.491782 123.267573 729.491782 210.781515 L 729.491782 311.149701 C 729.481368 398.648038 657.889768 470.238531 570.391815 470.238531 Z M 570.391815 470.238531 " transform="matrix(0.750241,0,0,0.750907,0.189899,0)"/>
<path style="fill:none;stroke-width:8.6395;stroke-linecap:butt;stroke-linejoin:miter;stroke:rgb(90.588235%,12.156863%,45.098039%);stroke-opacity:1;stroke-miterlimit:10;" d="M 411.291849 278.610933 L 411.291849 342.580436 C 411.291849 342.580436 411.291849 377.600578 395.30219 403.52235 C 395.30219 403.52235 373.517517 446.527627 343.459458 446.527627 " transform="matrix(0.750241,0,0,0.750907,0.189899,0)"/>
<path style="fill:none;stroke-width:8.6395;stroke-linecap:butt;stroke-linejoin:miter;stroke:rgb(90.588235%,12.156863%,45.098039%);stroke-opacity:1;stroke-miterlimit:10;" d="M 432.847429 390.787753 C 432.847429 390.787753 427.849034 417.879985 405.241708 444.628881 C 405.241708 444.628881 381.801316 475.721483 343.459458 475.721483 " transform="matrix(0.750241,0,0,0.750907,0.189899,0)"/>
<path style="fill:none;stroke-width:8.6395;stroke-linecap:butt;stroke-linejoin:miter;stroke:rgb(90.588235%,12.156863%,45.098039%);stroke-opacity:1;stroke-miterlimit:10;" d="M 452.929524 420.05964 C 452.929524 420.05964 441.438421 453.331897 412.031195 478.879122 C 412.031195 478.879122 381.707596 504.488772 343.360532 504.488772 " transform="matrix(0.750241,0,0,0.750907,0.189899,0)"/>
<path style="fill:none;stroke-width:8.6395;stroke-linecap:butt;stroke-linejoin:miter;stroke:rgb(90.588235%,12.156863%,45.098039%);stroke-opacity:1;stroke-miterlimit:10;" d="M 478.770187 441.018665 C 478.770187 441.018665 465.331792 481.001555 422.142532 508.109392 C 422.142532 508.109392 381.540983 533.880306 343.199125 533.880306 " transform="matrix(0.750241,0,0,0.750907,0.189899,0)"/>
</g>
</svg>
