<?xml version="1.0" encoding="UTF-8"?>
<svg xmlns="http://www.w3.org/2000/svg" xmlns:xlink="http://www.w3.org/1999/xlink" width="150px" height="150px" viewBox="0 0 632 447" version="1.1">
<g id="surface1">
<path style=" stroke:none;fill-rule:nonzero;fill:rgb(34.901961%,17.254902%,49.411765%);fill-opacity:1;" d="M 473.050781 372.03125 C 473.050781 380.933594 465.839844 388.152344 456.945312 388.152344 C 448.046875 388.152344 440.835938 380.933594 440.835938 372.03125 C 440.835938 363.125 448.046875 355.90625 456.945312 355.90625 C 465.839844 355.90625 473.050781 363.125 473.050781 372.03125 Z M 473.050781 372.03125 "/>
<path style=" stroke:none;fill-rule:nonzero;fill:rgb(34.901961%,17.254902%,49.411765%);fill-opacity:1;" d="M 456.953125 337.847656 C 438.082031 337.847656 422.824219 353.167969 422.824219 372.007812 C 422.824219 390.890625 438.089844 406.210938 456.953125 406.210938 C 475.820312 406.210938 491.078125 390.890625 491.078125 372.007812 C 491.078125 353.167969 475.8125 337.847656 456.953125 337.847656 Z M 456.953125 396.125 C 443.671875 396.125 432.859375 385.351562 432.859375 372.015625 C 432.859375 358.722656 443.671875 347.941406 456.953125 347.941406 C 470.230469 347.941406 481.003906 358.714844 481.003906 372.015625 C 480.996094 385.34375 470.230469 396.125 456.953125 396.125 Z M 456.953125 396.125 "/>
<path style=" stroke:none;fill-rule:nonzero;fill:rgb(34.901961%,17.254902%,49.803922%);fill-opacity:1;" d="M 253.882812 155.714844 C 253.882812 155.714844 258.949219 112.191406 279.421875 87.625 C 279.421875 87.625 307.203125 49.664062 360.441406 42.417969 C 360.441406 42.417969 403.855469 34.917969 444.691406 58.195312 C 444.691406 58.195312 480.613281 76.472656 492.503906 122.253906 L 525.582031 239.515625 L 527.105469 248.4375 C 532.253906 278.519531 509.101562 305.996094 478.609375 305.996094 L 320.394531 305.996094 C 320.394531 305.996094 332.441406 324.371094 355.609375 334.152344 C 362.496094 337.058594 369.9375 338.457031 377.410156 338.457031 L 387.203125 338.457031 L 387.203125 347.941406 L 377.539062 347.941406 C 371.019531 347.941406 364.550781 346.875 358.421875 344.652344 C 345.066406 339.800781 322.566406 328.941406 309.84375 307.847656 C 308.578125 305.738281 307.992188 303.285156 308 300.820312 L 308 299.46875 C 308 298.003906 309.183594 296.820312 310.648438 296.820312 L 477.214844 296.820312 C 485.984375 296.820312 494.597656 294.128906 501.589844 288.828125 C 507.300781 284.496094 513.152344 278.015625 516.558594 268.496094 C 516.558594 268.496094 518.238281 250.390625 515.394531 238.488281 L 486.152344 130.28125 C 486.152344 130.28125 475.46875 97.003906 453.417969 76.480469 C 453.417969 76.480469 433.800781 57.789062 399.941406 51.527344 C 396.480469 50.890625 392.964844 50.582031 389.445312 50.460938 C 378.175781 50.070312 353.320312 50.265625 334.714844 58.03125 C 334.714844 58.03125 307.667969 68.894531 287.164062 92.175781 C 287.164062 92.175781 269.953125 110.449219 264.386719 155.738281 Z M 253.882812 155.714844 "/>
<path style=" stroke:none;fill-rule:nonzero;fill:rgb(34.901961%,17.254902%,49.803922%);fill-opacity:1;" d="M 387.066406 356.214844 L 387.066406 367.261719 C 387.066406 367.261719 376.871094 367.554688 364.265625 366.089844 C 350.492188 364.492188 336.117188 360.324219 324.355469 352.429688 C 324.355469 352.429688 307.636719 341.09375 298.082031 326.433594 C 298.082031 326.433594 288.417969 312.769531 282.910156 299.914062 C 281.644531 296.945312 281.027344 293.753906 281.027344 290.527344 C 281.027344 282.933594 287.179688 276.777344 294.765625 276.777344 L 478.835938 276.777344 C 490.871094 276.777344 499.867188 265.714844 497.425781 253.917969 L 488.898438 212.710938 L 465.25 129.074219 C 465.25 129.074219 451.8125 97.902344 434.496094 85.746094 C 434.496094 85.746094 413.046875 69.0625 375.964844 69.96875 C 375.964844 69.96875 343.53125 70.359375 314.714844 92.730469 C 314.714844 92.730469 290.164062 107.859375 282.535156 155.714844 L 273.351562 155.714844 C 273.351562 155.714844 273.609375 106.679688 315.351562 79.410156 C 315.351562 79.410156 336.28125 63.367188 373.113281 60.523438 C 373.113281 60.523438 394.824219 56.902344 426.605469 70.097656 C 426.605469 70.097656 446.5 80.574219 459.425781 98.8125 C 459.425781 98.8125 470.410156 116.269531 474.542969 132.566406 L 490.433594 182.53125 L 501.042969 226.210938 C 503.953125 238.203125 506.585938 250.652344 506.585938 262.988281 C 506.585938 275.539062 495.265625 285.554688 482.730469 285.554688 L 299.289062 285.554688 C 293.347656 285.554688 289.542969 291.839844 292.242188 297.140625 C 295.441406 303.425781 299.941406 310.761719 303.324219 315.839844 C 303.324219 315.839844 318.328125 340.792969 344.820312 350.621094 C 344.820312 350.621094 362.8125 356.566406 379.839844 356.183594 Z M 387.066406 356.214844 "/>
<path style=" stroke:none;fill-rule:nonzero;fill:rgb(34.901961%,17.254902%,49.803922%);fill-opacity:1;" d="M 291.875 155.714844 C 291.875 155.714844 297.644531 103.984375 345.457031 85.617188 C 345.457031 85.617188 373.929688 72.792969 407.734375 83.523438 C 420.640625 87.617188 432.035156 95.3125 440.5 105.886719 C 445.578125 112.238281 450.125 120.40625 452.367188 128.726562 L 471.320312 193.222656 L 483.71875 239.433594 L 487.914062 252.460938 C 489.925781 258.71875 485.265625 265.128906 478.695312 265.128906 L 289.609375 265.128906 C 273.808594 265.128906 263.285156 281.484375 269.847656 295.863281 C 277.679688 313.015625 287.050781 327.53125 295.753906 337.847656 C 295.753906 337.847656 317.292969 361.6875 338.824219 370.144531 C 338.824219 370.144531 351.398438 375.835938 366.90625 376.007812 L 387.066406 376.007812 L 387.066406 385.410156 L 366.515625 385.410156 C 366.515625 385.410156 343.90625 385.433594 322.191406 372.035156 C 322.191406 372.035156 302.6875 360.625 288.851562 343.246094 C 288.851562 343.246094 265.203125 315.019531 259.390625 288.671875 L 259.390625 285.824219 C 259.390625 269.539062 272.578125 256.335938 288.851562 256.335938 L 473.945312 256.335938 C 477.15625 256.335938 479.421875 253.183594 478.394531 250.140625 L 471.304688 229.050781 L 450.5 152.871094 C 450.5 152.871094 445.976562 134.652344 438.433594 119.769531 C 435.773438 114.503906 432.089844 109.859375 427.640625 105.992188 C 421.53125 100.675781 411.898438 93.269531 403.984375 91.574219 C 403.984375 91.574219 376.722656 83.164062 347.777344 94.675781 C 347.777344 94.675781 328.390625 101.011719 315.859375 120.28125 C 315.859375 120.28125 306.949219 131.402344 302.296875 155.714844 Z M 291.875 155.714844 "/>
<path style=" stroke:none;fill-rule:nonzero;fill:rgb(34.901961%,17.254902%,49.411765%);fill-opacity:1;" d="M 313.152344 155.746094 C 313.152344 155.746094 316.769531 111.996094 362.257812 100.230469 C 362.257812 100.230469 378.941406 97.265625 396.128906 99.953125 C 404.660156 101.289062 412.671875 104.9375 419.410156 110.347656 L 419.621094 110.519531 C 423.054688 113.289062 425.816406 116.8125 427.84375 120.730469 C 428.734375 122.457031 429.636719 124.492188 430.355469 126.722656 L 460.589844 226.976562 L 463.34375 233.703125 C 466.097656 240.433594 461.160156 247.800781 453.898438 247.800781 L 285.703125 247.800781 C 260.238281 247.800781 242.195312 272.960938 250.648438 296.992188 C 255.039062 309.464844 261.054688 320.960938 265.675781 329.691406 C 267.304688 332.773438 269.152344 335.722656 271.246094 338.515625 C 276.269531 345.246094 286.496094 357.753906 300.757812 369.363281 C 300.757812 369.363281 324.660156 388.113281 349.734375 393.421875 C 349.734375 393.421875 355.097656 395.171875 369.570312 394.910156 L 387.082031 394.910156 L 387.082031 404.027344 L 369.636719 404.714844 C 369.636719 404.714844 368.878906 404.753906 367.558594 404.769531 C 356.351562 404.902344 345.25 402.703125 334.863281 398.46875 C 326.792969 395.171875 316.078125 390.285156 306.117188 384.089844 C 299.867188 380.207031 294.113281 375.597656 288.777344 370.527344 C 281.371094 363.492188 268.902344 350.972656 260.101562 338.675781 C 260.101562 338.675781 248.765625 321.726562 240.71875 299.777344 C 239.171875 295.570312 238.355469 291.125 238.355469 286.644531 C 238.355469 259.835938 260.066406 238.105469 286.847656 238.105469 L 455.171875 238.105469 L 441.21875 187.019531 L 422.140625 130.546875 C 422.140625 130.546875 417.832031 118.34375 402.199219 111.621094 C 402.199219 111.621094 387.082031 106.058594 361.882812 110.066406 C 361.882812 110.066406 344.691406 114.597656 334.617188 127.269531 C 334.617188 127.269531 322.664062 142.507812 321.921875 155.753906 Z M 313.152344 155.746094 "/>
<path style=" stroke:none;fill-rule:nonzero;fill:rgb(34.901961%,17.254902%,49.411765%);fill-opacity:1;" d="M 104.855469 164.765625 L 226.835938 236.160156 L 226.835938 288.324219 C 226.835938 296.5625 228.578125 304.6875 232.03125 312.167969 C 238.195312 325.519531 250.019531 347.683594 268.445312 368.597656 C 268.445312 368.597656 294.027344 397.019531 319.613281 406.21875 L 104.855469 406.21875 Z M 104.855469 164.765625 "/>
<path style=" stroke:none;fill-rule:nonzero;fill:rgb(0.392157%,0.784314%,0.784314%);fill-opacity:1;" d="M 104.164062 40.78125 L 104.164062 69.0625 L 227.011719 139.25 L 227.011719 111.316406 L 141.210938 61.820312 L 289.03125 61.820312 C 289.03125 61.820312 305.058594 46.585938 320.902344 41.269531 Z M 104.164062 40.78125 "/>
<path style=" stroke:none;fill-rule:nonzero;fill:rgb(0.392157%,0.784314%,0.784314%);fill-opacity:1;" d="M 104.855469 84.410156 L 104.855469 109.070312 L 226.492188 178.566406 L 226.492188 155.105469 Z M 104.855469 84.410156 "/>
<path style=" stroke:none;fill-rule:nonzero;fill:rgb(0.392157%,0.784314%,0.784314%);fill-opacity:1;" d="M 104.855469 124.9375 L 104.855469 149.597656 L 226.492188 219.777344 L 226.492188 195.289062 Z M 104.855469 124.9375 "/>
</g>
</svg>
