<?xml version="1.0" encoding="UTF-8"?>
<svg xmlns="http://www.w3.org/2000/svg" xmlns:xlink="http://www.w3.org/1999/xlink" width="150px" height="150px" viewBox="0 0 632 447" version="1.1">
<g id="surface1">
<path style="fill:none;stroke-width:14.3747;stroke-linecap:butt;stroke-linejoin:miter;stroke:rgb(2.352941%,65.098039%,31.372549%);stroke-opacity:1;stroke-miterlimit:10;" d="M 370.560133 211.239295 L 370.560133 408.198986 L 654.989657 408.198986 L 654.989657 211.239295 " transform="matrix(0.750241,0,0,0.750907,0.189899,0)"/>
<path style="fill:none;stroke-width:14.3747;stroke-linecap:butt;stroke-linejoin:miter;stroke:rgb(2.352941%,65.098039%,31.372549%);stroke-opacity:1;stroke-miterlimit:10;" d="M 333.858374 211.239295 L 333.858374 411.569908 C 333.858374 430.318066 349.061826 445.518431 367.811016 445.518431 L 659.128953 445.518431 C 677.628223 445.518431 692.618202 430.531349 692.618202 412.027688 L 692.618202 211.239295 " transform="matrix(0.750241,0,0,0.750907,0.189899,0)"/>
<path style="fill:none;stroke-width:14.3747;stroke-linecap:butt;stroke-linejoin:miter;stroke:rgb(2.352941%,65.098039%,31.372549%);stroke-opacity:1;stroke-miterlimit:10;" d="M 299.910938 211.239295 L 299.910938 416.392201 C 299.910938 452.239468 328.969318 481.308475 364.827598 481.308475 L 658.202168 481.308475 C 695.700546 481.308475 726.102245 450.907745 726.102245 413.411431 L 726.102245 211.239295 " transform="matrix(0.750241,0,0,0.750907,0.189899,0)"/>
<path style="fill:none;stroke-width:14.3747;stroke-linecap:butt;stroke-linejoin:miter;stroke:rgb(2.352941%,65.098039%,31.372549%);stroke-opacity:1;stroke-miterlimit:10;" d="M 262.750993 211.239295 L 262.750993 414.321788 C 262.750993 470.82116 308.54879 516.619932 365.051485 516.619932 L 665.538354 516.619932 C 719.760531 516.619932 763.720377 472.667885 763.720377 418.441805 L 763.720377 211.239295 " transform="matrix(0.750241,0,0,0.750907,0.189899,0)"/>
<path style="fill:none;stroke-width:14.3747;stroke-linecap:butt;stroke-linejoin:miter;stroke:rgb(2.352941%,65.098039%,31.372549%);stroke-opacity:1;stroke-miterlimit:10;" d="M 490.828815 125.181924 C 490.828815 153.683909 467.72165 176.791377 439.220383 176.791377 C 410.719116 176.791377 387.611951 153.683909 387.611951 125.181924 C 387.611951 96.674737 410.719116 73.572471 439.220383 73.572471 C 467.72165 73.572471 490.828815 96.674737 490.828815 125.181924 Z M 490.828815 125.181924 " transform="matrix(0.750241,0,0,0.750907,0.189899,0)"/>
<path style=" stroke:none;fill-rule:nonzero;fill:rgb(2.352941%,65.098039%,31.372549%);fill-opacity:1;" d="M 350.289062 94 C 350.289062 105.375 341.078125 114.597656 329.710938 114.597656 C 318.34375 114.597656 309.132812 105.375 309.132812 94 C 309.132812 82.621094 318.34375 73.402344 329.710938 73.402344 C 341.078125 73.402344 350.289062 82.621094 350.289062 94 Z M 350.289062 94 "/>
<path style="fill:none;stroke-width:14.3747;stroke-linecap:butt;stroke-linejoin:miter;stroke:rgb(2.352941%,65.098039%,31.372549%);stroke-opacity:1;stroke-miterlimit:10;" d="M 637.64106 125.181924 C 637.64106 153.683909 614.533895 176.791377 586.027421 176.791377 C 557.526154 176.791377 534.418989 153.683909 534.418989 125.181924 C 534.418989 96.674737 557.526154 73.572471 586.027421 73.572471 C 614.533895 73.572471 637.64106 96.674737 637.64106 125.181924 Z M 637.64106 125.181924 " transform="matrix(0.750241,0,0,0.750907,0.189899,0)"/>
<path style=" stroke:none;fill-rule:nonzero;fill:rgb(2.352941%,65.098039%,31.372549%);fill-opacity:1;" d="M 460.433594 94 C 460.433594 105.375 451.21875 114.597656 439.851562 114.597656 C 428.488281 114.597656 419.273438 105.375 419.273438 94 C 419.273438 82.621094 428.488281 73.402344 439.851562 73.402344 C 451.21875 73.402344 460.433594 82.621094 460.433594 94 Z M 460.433594 94 "/>
<path style=" stroke:none;fill-rule:nonzero;fill:rgb(0%,0%,0%);fill-opacity:1;" d="M 58.835938 53.203125 L 58.835938 76.628906 L 174.710938 142.769531 L 174.710938 123.246094 L 77.417969 68.128906 L 280.945312 68.128906 C 280.945312 68.128906 282.445312 56.414062 290.992188 53.203125 Z M 58.835938 53.203125 "/>
<path style=" stroke:none;fill-rule:nonzero;fill:rgb(0%,0%,0%);fill-opacity:1;" d="M 60.15625 93.570312 L 60.15625 112.6875 L 174.914062 178.308594 L 174.914062 158.621094 Z M 60.15625 93.570312 "/>
<path style=" stroke:none;fill-rule:nonzero;fill:rgb(0%,0%,0%);fill-opacity:1;" d="M 60.15625 128.878906 L 60.15625 147.996094 L 174.914062 213.625 L 174.914062 193.929688 Z M 60.15625 128.878906 "/>
<path style=" stroke:none;fill-rule:nonzero;fill:rgb(2.352941%,65.098039%,31.372549%);fill-opacity:1;" d="M 60.15625 161.949219 L 173.21875 232.570312 L 173.21875 315.101562 C 173.21875 325.820312 175.085938 336.480469 179.121094 346.410156 C 185.175781 361.304688 197.351562 380.386719 221.75 393.789062 L 60.15625 393.789062 Z M 60.15625 161.949219 "/>
</g>
</svg>
